<svg xmlns="http://www.w3.org/2000/svg" xmlns:xlink="http://www.w3.org/1999/xlink" width="20" height="15" fill="none" xmlns:v="https://vecta.io/nano"><mask id="A" maskUnits="userSpaceOnUse" x="0" y="0" width="20" height="15"><path fill="#fff" d="M0 0h20v15H0z"/></mask><g mask="url(#A)" fill-rule="evenodd"><path d="M0 0h20v15H0V0z" fill="#e31d1c"/><path d="M4.446 6.097L2.013 8.004l.93-2.884-1.624-1.5 2.198-.08.93-2.322.929 2.321h2.193L5.95 5.12l.738 2.884-2.242-1.907zm4.939-2.24l-1.02.617.232-1.203-.85-.9 1.151-.049.487-1.123.487 1.123h1.15l-.849.949.256 1.203-1.044-.617z" fill="#feca00"/><use xlink:href="#C" fill="#feca00"/><use xlink:href="#C" x="-1.25" y="2.5" fill="#feca00"/><use xlink:href="#C" x="-3.75" y="3.75" fill="#feca00"/></g><defs ><path id="C" d="M10.635 6.357l-1.02.617.232-1.203-.85-.9 1.151-.049.487-1.123.487 1.123h1.15l-.849.949.256 1.203-1.044-.617z"/></defs></svg>