<svg width="380" height="379" viewBox="0 0 380 379" fill="none" xmlns="http://www.w3.org/2000/svg">
<path d="M138.323 188C122.723 97.6001 165.823 25.0001 189.323 6.10352e-05C235.323 6.10352e-05 275.156 19.0001 289.323 28.5001C334.923 55.7001 359.656 102.167 366.323 122C393.923 190.4 370.156 255.833 354.823 280C324.423 194.8 248.49 152.5 214.323 142C157.923 127.2 140.156 166.5 138.323 188Z" fill="#599DD2"/>
<path d="M215.441 145.6C301.642 176.983 343.227 250.461 353.245 283.277C330.387 323.196 294.105 348.322 278.821 355.895C232.558 381.951 179.944 380.325 159.42 376.255C86.3472 366.217 41.374 313.078 28.0215 287.763C117.064 303.718 191.504 258.843 217.594 234.411C258.464 192.821 233.187 157.874 215.441 145.6Z" fill="#2A3990"/>
<path d="M214.261 234.168C143.885 293.014 59.4599 292.15 26.0442 284.363C2.96768 244.57 -0.579059 200.58 0.532136 183.559C1.18599 130.467 28.9748 85.7605 42.7874 70.0438C88.1118 11.8543 156.639 -0.411593 185.237 0.729163C126.784 69.7688 128.285 156.676 136.342 191.5C151.832 247.714 194.742 243.368 214.261 234.168Z" fill="#FFD53C"/>
</svg>