<svg xmlns="http://www.w3.org/2000/svg" viewBox="0 0 640 512" fill="#1c5e89"><path d="M240 48L128 48c-8.8 0-16 7.2-16 16l0 384c0 8.8 7.2 16 16 16l144 0 0 48-144 0c-35.3 0-64-28.7-64-64L64 64C64 28.7 92.7 0 128 0L261.5 0c17 0 33.3 6.7 45.3 18.7L429.3 141.3c12 12 18.7 28.3 18.7 45.3l0 149.5-48 0 0-128-88 0c-39.8 0-72-32.2-72-72l0-88zM380.1 160L288 67.9 288 136c0 13.3 10.7 24 24 24l68.1 0zM336 380l64 0c6.9 0 13.4 3.6 17 9.5s4 13.3 .9 19.5L368.4 508 400 508c11 0 20 9 20 20s-9 20-20 20l-64 0c-6.9 0-13.4-3.6-17-9.5s-4-13.3-.9-19.5l49.5-99.1-31.6 0c-11 0-20-9-20-20s9-20 20-20zm148 20l0 128c0 11-9 20-20 20s-20-9-20-20l0-128c0-11 9-20 20-20s20 9 20 20zm24 0c0-11 9-20 20-20l32 0c33.1 0 60 26.9 60 60s-26.9 60-60 60l-12 0 0 28c0 11-9 20-20 20s-20-9-20-20l0-128zm40 60l12 0c11 0 20-9 20-20s-9-20-20-20l-12 0 0 40z"/></svg>