<svg height="32" viewBox="0 0 32 32" width="32" xmlns="http://www.w3.org/2000/svg"><path d="m30.921 10.505c0-6.943-4.547-8.975-4.547-8.975-2.292-1.057-6.229-1.5-10.323-1.531h-.099c-4.089.031-8.027.473-10.317 1.531 0 0-4.553 2.032-4.553 8.975 0 1.588-.031 3.489.021 5.505.167 6.792 1.245 13.479 7.521 15.14 2.896.767 5.38.928 7.38.819 3.631-.204 5.667-1.297 5.667-1.297l-.12-2.636s-2.593.819-5.505.719c-2.885-.099-5.932-.307-6.396-3.853-.047-.328-.067-.661-.067-.995 0 0 2.832.692 6.427.859 2.192.099 4.249-.129 6.344-.38 4.005-.473 7.5-2.948 7.937-5.203.687-3.552.629-8.677.629-8.677zm-5.364 8.948h-3.328v-8.161c0-1.719-.724-2.595-2.172-2.595-1.599 0-2.401 1.037-2.401 3.084v4.469h-3.312v-4.469c0-2.047-.803-3.084-2.401-3.084-1.448 0-2.172.876-2.172 2.595v8.156h-3.328v-8.401c0-1.719.437-3.083 1.317-4.093.907-1.011 2.089-1.532 3.563-1.532 1.704 0 2.995.657 3.849 1.969l.828 1.391.828-1.391c.855-1.312 2.145-1.969 3.849-1.969 1.473 0 2.661.521 3.568 1.532.875 1.011 1.312 2.375 1.312 4.093z"/></svg>