<svg width="381" height="384" viewBox="0 0 381 384" fill="none" xmlns="http://www.w3.org/2000/svg">
<path d="M139.323 190C123.723 99.6001 166.823 27.0001 190.323 2.00006C236.323 2.00006 276.156 21.0001 290.323 30.5001C335.923 57.7001 360.656 104.167 367.323 124C394.923 192.4 371.156 257.833 355.823 282C325.423 196.8 249.49 154.5 215.323 144C158.923 129.2 141.156 168.5 139.323 190Z" fill="#599DD2"/>
<path d="M216.441 147.6C302.642 178.983 344.227 252.461 354.245 285.277C331.387 325.196 295.105 350.322 279.821 357.895C233.558 383.951 180.944 382.325 160.42 378.254C87.3472 368.217 42.3741 315.078 29.0215 289.763C118.064 305.718 192.504 260.843 218.594 236.411C259.464 194.821 234.187 159.874 216.441 147.6Z" fill="#CCCCCC"/>
<path d="M215.261 236.168C144.885 295.014 60.4598 294.15 27.0442 286.363C3.96763 246.57 0.420894 202.58 1.53209 185.559C2.18594 132.467 29.9747 87.7606 43.7874 72.0438C89.1118 13.8543 157.639 1.58843 186.236 2.72918C127.784 71.7688 129.284 158.676 137.342 193.5C152.832 249.714 195.742 245.368 215.261 236.168Z" fill="#FFD53C"/>
</svg>
