<svg width="379" height="379" viewBox="0 0 379 379" fill="none" xmlns="http://www.w3.org/2000/svg">
<path fill-rule="evenodd" clip-rule="evenodd" d="M25.2739 283.855L23.8579 281.235L22.3712 278.544L20.9553 275.854L19.6102 273.163L18.2651 270.402L16.9908 267.64L15.7165 264.95L14.513 262.118L13.3802 259.286L12.3184 256.453L11.2564 253.621L10.1945 250.718L9.20337 247.815L8.28302 244.841L7.43347 241.938L6.58392 238.965L5.80518 235.92L5.02643 233.017L4.38928 229.973L3.75214 226.857L3.18579 223.883L2.61938 220.768L2.12384 217.723L1.6283 214.537L1.27429 211.422L0.849548 208.306L0.637146 205.12L0.353943 201.934L0.212402 198.748L0.0708008 195.562L0 192.375V189.118L0.212402 179.56L0.849548 170.072L2.12384 160.655L3.75214 151.521L5.80518 142.458L8.21222 133.537L11.1856 124.899L14.4422 116.402L18.1943 108.047L22.3005 99.9757L26.6898 92.1165L31.5038 84.5404L36.6719 77.1767L42.123 70.0255L47.9283 63.2283L54.0167 56.6435L60.5298 50.4127L67.1845 44.4651L74.1932 38.8716L81.4852 33.5613L88.9894 28.605L96.7061 24.0027L104.706 19.7544L112.918 15.931L121.343 12.5324L129.909 9.41698L138.758 6.79722L147.749 4.53148L156.882 2.69057L166.227 1.41608L175.572 0.495628L185.129 0L182.297 3.3278L179.536 6.79722L176.705 10.1958L174.085 13.8068L171.607 17.4887L169.059 21.2413L166.652 24.9939L164.315 28.959L162.121 32.8532L159.926 36.8891L157.873 40.8541L155.82 45.0316L153.838 49.209L151.997 53.3865L150.298 57.6347L148.528 61.883L146.404 67.689L144.422 73.4949L142.51 79.3717L140.811 85.2484L139.254 91.196L137.767 97.0728L136.564 103.091L135.431 108.968L134.44 114.845L133.52 120.721L132.812 126.598L132.316 132.404L131.891 138.139L131.537 143.733L131.466 149.397V154.849L131.537 158.743L131.82 162.496L132.033 166.249L132.387 169.93L132.812 173.541L133.166 177.011L133.803 180.551L134.44 183.95L135.077 187.348L135.927 190.605L136.705 193.792L137.626 196.907L138.617 199.81L139.75 202.784L140.882 205.616L142.015 208.377L142.581 209.722L143.219 210.997L143.785 212.271L144.564 213.546V213.617L144.705 213.9L144.776 213.971L144.847 214.183L145.059 214.466L146.546 216.874L148.174 219.21L149.873 221.476L151.714 223.6L152.068 224.025L152.422 224.308L154.192 226.22L155.962 227.848L157.873 229.477L159.855 230.964L161.838 232.238L163.961 233.513L166.085 234.575L168.422 235.566L169.979 236.203L171.536 236.841L173.165 237.336L174.793 237.903H174.864L175.147 237.973L176.846 238.398L178.474 238.823L180.103 239.106L181.731 239.389L183.359 239.602L185.058 239.814L186.687 239.885H188.315H190.014H191.784L193.554 239.673L195.253 239.531L197.023 239.319L198.722 238.965L200.492 238.611L202.191 238.115H202.332L202.545 238.044L204.031 237.69L205.518 237.195L206.934 236.628L208.421 235.991L209.837 235.424L211.182 234.787L212.598 234.079L214.014 233.3H214.084L214.155 233.23L211.182 235.92L208.067 238.611L204.81 241.23L201.483 243.85L197.943 246.399L194.403 248.948L190.651 251.355L186.687 253.763L182.014 256.453L177.129 259.144L172.174 261.764L167.076 264.242L161.838 266.578L156.457 268.844L151.006 271.11L145.484 273.163L139.82 275.075L134.157 276.916L128.352 278.615L122.476 280.173L116.6 281.66L110.653 282.934L104.706 284.067L98.6176 285.129L94.0159 285.766L89.3434 286.333L84.6709 286.828L79.9985 287.253L75.3968 287.607L70.6535 287.749L66.0518 287.89H61.3793L56.7776 287.749L52.176 287.536L47.5743 287.182L43.1142 286.758L38.5125 286.191L34.1232 285.554L29.7339 284.704L25.2739 283.855Z" fill="#FFD53C"/>
<path fill-rule="evenodd" clip-rule="evenodd" d="M352.959 283.6L349.773 288.838L346.516 294.005L342.976 298.96L339.365 303.915L335.613 308.728L331.719 313.4L327.612 317.859L323.364 322.248L319.045 326.495L314.584 330.6L309.911 334.635L305.167 338.457L300.353 342.067L295.326 345.535L290.228 348.933L284.988 352.189L279.678 355.232L274.297 358.064L268.704 360.683L263.11 363.231L257.375 365.567L251.569 367.69L245.622 369.672L239.674 371.371L233.585 372.999L227.426 374.344L221.195 375.547L214.893 376.538L208.521 377.246L202.149 377.812L195.635 378.166L189.05 378.237L182.678 378.166L176.306 377.812L170.075 377.246L163.844 376.538L157.614 375.618L151.595 374.485L145.577 373.14L139.559 371.725L133.682 369.955L127.876 368.115L122.212 366.062L116.548 363.797L110.954 361.391L105.503 358.772L100.192 356.011L94.8821 353.18L89.7842 350.065L84.6864 346.809L79.801 343.412L74.9864 339.943L70.3134 336.263L65.7112 332.37L61.2506 328.406L56.9316 324.3L52.7542 320.053L48.6476 315.736L44.7535 311.276L41.0009 306.605L37.3192 301.862L33.779 297.049L30.522 292.023L27.3359 286.998L31.5841 287.776L35.9739 288.555L40.2929 289.192L44.7535 289.688L49.2141 290.112L53.7455 290.325L58.2061 290.466L62.7375 290.608H67.2689L71.8003 290.466L76.3317 290.254L80.9338 289.9L85.5361 289.546L90.0674 289.05L94.6697 288.484L99.201 287.776L105.29 286.715L111.308 285.582L117.327 284.308L123.345 282.822L129.222 281.194L135.098 279.495L140.833 277.654L146.498 275.673L152.162 273.549L157.614 271.355L162.995 269.09L168.305 266.612L173.544 264.206L178.571 261.587L183.457 258.897L188.271 256.066L191.528 254.084L194.714 252.031L197.759 249.978L200.733 247.855L203.706 245.661L206.539 243.537L209.229 241.343L211.99 239.007L214.469 236.742L216.947 234.477L219.212 232.141L221.549 229.805L223.531 227.399L225.585 225.063L227.496 222.585L229.266 220.25L230.328 218.763L231.391 217.277L232.311 215.719L233.302 214.162L233.373 213.95L233.444 213.879L233.515 213.667V213.596L233.656 213.454L234.86 211.26L235.78 208.924L236.701 206.659L237.55 204.323L237.763 203.757L237.904 203.262L238.612 200.784L239.179 198.307L239.533 195.971L239.887 193.494L240.028 191.087V188.68L239.887 186.274L239.533 183.796L239.32 181.744L238.966 179.762L238.612 177.78L238.117 175.727L238.046 175.515V175.444L237.55 173.887L237.055 172.4L236.488 170.914L235.922 169.427L235.214 167.941L234.577 166.525L233.869 165.18L233.019 163.765L232.877 163.482L232.807 163.269L232.028 162.066L231.32 160.934L230.47 159.659L229.62 158.527L228.7 157.394L227.78 156.262L226.788 155.2L225.868 154.138L224.593 152.794L223.319 151.661L221.974 150.458L220.699 149.396L219.283 148.334L217.867 147.272L216.451 146.352L214.893 145.503L214.823 145.361L214.752 145.291L218.575 146.565L222.398 147.839L226.363 149.325L230.258 150.953L234.152 152.723L238.188 154.634L242.153 156.687L246.188 158.81L250.932 161.5L255.676 164.402L260.42 167.446L265.022 170.631L269.766 173.958L274.439 177.426L279.041 181.107L283.572 184.858L288.104 188.751L292.494 192.786L296.883 196.962L301.132 201.209L305.38 205.598L309.486 210.128L313.522 214.729L317.416 219.4L320.248 223.081L323.151 226.832L325.913 230.655L328.603 234.548L331.223 238.37L333.701 242.405L336.108 246.298L338.445 250.403L340.64 254.367L342.764 258.472L344.675 262.648L346.587 266.683L348.357 270.93L349.986 275.106L351.543 279.353L352.959 283.6Z" fill="#CCCCCC"/>
<path fill-rule="evenodd" clip-rule="evenodd" d="M189.069 0L198.91 0.283218L208.468 0.991257L217.955 2.12413L227.229 3.82343L236.362 5.94756L245.354 8.49652L254.133 11.4703L262.699 14.8689L271.124 18.6215L279.266 22.799L287.195 27.4013L294.771 32.2868L302.204 37.5971L309.426 43.1906L316.293 49.1382L322.807 55.4398L329.108 61.9538L334.984 68.8218L340.648 76.0438L345.958 83.3367L350.843 91.0544L355.374 98.9845L359.551 107.127L363.303 115.482L366.772 124.12L369.675 132.9L372.224 141.892L374.348 151.026L375.976 160.372L377.25 169.86L377.958 179.418L378.171 189.118V192.234L378.1 195.349L377.958 198.465L377.817 201.438L377.604 204.483L377.321 207.527L376.967 210.501L376.613 213.546L376.259 216.59L375.764 219.493L375.268 222.467L374.772 225.37L374.135 228.344L373.427 231.318L372.79 234.15L372.082 236.982L371.303 239.885L370.524 242.717L369.604 245.479L368.755 248.382L367.834 251.143L366.843 253.904L365.781 256.595L364.719 259.427L363.657 262.118L362.524 264.808L361.321 267.428L360.046 270.048L358.843 272.667L357.498 275.287L356.153 277.836L354.737 280.385L353.391 276.208L351.834 272.101L350.135 267.994L348.365 263.888L346.524 259.923L344.471 255.887L342.418 251.851L340.223 247.886L337.957 243.921L335.55 240.098L333.002 236.274L330.524 232.451L327.904 228.698L325.214 225.016L322.382 221.334L319.55 217.723L315.656 212.979L311.55 208.306L307.373 203.775L303.125 199.314L298.806 194.995L294.417 190.818L289.886 186.711L285.355 182.746L280.753 178.993L276.08 175.312L271.337 171.701L266.593 168.373L261.85 165.116L257.177 162.071L252.292 159.097L247.478 156.407L244.15 154.637L240.823 152.796L237.424 151.167L234.097 149.61L230.769 148.264L227.513 146.848L224.256 145.574L220.928 144.441L217.672 143.379L214.486 142.388L211.3 141.538L208.114 140.759L204.999 140.193L202.025 139.555L198.981 139.201L195.937 138.847L194.379 138.706L192.892 138.493L191.193 138.422L189.707 138.352H189.565H189.353H189.211L186.379 138.422L183.547 138.706L180.786 139.131L178.025 139.555L177.388 139.768L176.963 139.839L174.485 140.405L172.078 141.113L169.812 142.033L167.547 142.954L165.352 144.087L163.299 145.22L161.246 146.636L159.263 148.123L157.989 149.043L156.573 150.105L155.299 151.309L154.095 152.442V152.513L153.954 152.583L153.741 152.725L152.396 154.07L151.192 155.416L149.989 156.832L148.856 158.318L147.794 159.805L146.732 161.221L145.741 162.779L144.821 164.408L144.679 164.691L144.608 164.762L143.334 167.24L142.272 169.647L141.352 172.196L140.431 174.816V175.028L140.36 175.17L139.936 176.869L139.511 178.569L139.228 180.268L138.874 182.038L138.732 183.737L138.52 185.437L138.449 187.136L138.378 188.835L137.528 184.941L136.75 180.976L136.112 176.798L135.546 172.621L135.121 168.302L134.697 163.841L134.484 159.451L134.343 154.849L134.272 149.397L134.484 143.874L134.697 138.281L135.121 132.546L135.688 126.811L136.396 121.146L137.245 115.34L138.236 109.463L139.369 103.516L140.573 97.7808L142.06 91.8332L143.617 85.9565L145.316 80.1505L147.086 74.3446L149.068 68.5386L151.192 62.8742L153.033 58.4844L154.803 54.1653L156.644 49.8462L158.697 45.598L160.75 41.4205L162.874 37.2431L165.14 33.2072L167.476 29.1714L169.883 25.2771L172.361 21.3829L174.981 17.5595L177.6 13.8776L180.361 10.3374L183.122 6.72641L186.096 3.257L188.999 0H189.069Z" fill="#599DD2"/>
</svg>
